<svg width="24" height="24" viewBox="0 0 24 24" fill="none" xmlns="http://www.w3.org/2000/svg">
<g id="basil:edit-outline">
<path id="Vector" fill-rule="evenodd" clip-rule="evenodd" d="M21.4549 5.41583C21.5499 5.56004 21.5922 5.73261 21.5747 5.90442C21.5573 6.07622 21.481 6.23673 21.3589 6.35883L12.1659 15.5508C12.0718 15.6448 11.9545 15.7121 11.8259 15.7458L7.99689 16.7458C7.87032 16.7788 7.73732 16.7782 7.61109 16.7439C7.48485 16.7096 7.36978 16.6429 7.27729 16.5504C7.18479 16.4579 7.1181 16.3429 7.08382 16.2166C7.04955 16.0904 7.04888 15.9574 7.08189 15.8308L8.08189 12.0028C8.11109 11.8879 8.16616 11.7812 8.24289 11.6908L17.4699 2.46983C17.6105 2.32938 17.8011 2.25049 17.9999 2.25049C18.1986 2.25049 18.3893 2.32938 18.5299 2.46983L21.3589 5.29783C21.3948 5.33383 21.4269 5.37337 21.4549 5.41583ZM19.7679 5.82783L17.9999 4.06083L9.48189 12.5788L8.85689 14.9718L11.2499 14.3468L19.7679 5.82783Z" fill="#458FFF"/>
<path id="Vector_2" d="M19.6411 17.1599C19.9144 14.8238 20.0017 12.4698 19.9021 10.1199C19.8999 10.0645 19.9092 10.0093 19.9293 9.95769C19.9494 9.90608 19.98 9.85916 20.0191 9.81989L21.0031 8.83589C21.0299 8.80885 21.0641 8.79014 21.1013 8.78203C21.1386 8.77392 21.1774 8.77674 21.2131 8.79015C21.2488 8.80356 21.2799 8.827 21.3026 8.85764C21.3253 8.88828 21.3386 8.92483 21.3411 8.96289C21.5263 11.7541 21.456 14.5564 21.1311 17.3349C20.8951 19.3569 19.2711 20.9419 17.2581 21.1669C13.7634 21.5539 10.2367 21.5539 6.74206 21.1669C4.73006 20.9419 3.10506 19.3569 2.86906 17.3349C2.45446 13.7903 2.45446 10.2095 2.86906 6.66489C3.10506 4.64289 4.72906 3.05789 6.74206 2.83289C9.39443 2.53877 12.0668 2.46752 14.7311 2.61989C14.7692 2.62262 14.8057 2.63623 14.8364 2.6591C14.867 2.68196 14.8904 2.71313 14.9039 2.74891C14.9174 2.78468 14.9203 2.82357 14.9124 2.86096C14.9044 2.89835 14.8859 2.93268 14.8591 2.95989L13.8661 3.95189C13.8272 3.99064 13.7807 4.02101 13.7297 4.04113C13.6786 4.06125 13.6239 4.0707 13.5691 4.06889C11.3458 3.99331 9.12001 4.07853 6.90906 4.32389C6.263 4.39539 5.65991 4.68261 5.19721 5.13914C4.73451 5.59567 4.43923 6.19485 4.35906 6.83989C3.9581 10.2682 3.9581 13.7316 4.35906 17.1599C4.43923 17.8049 4.73451 18.4041 5.19721 18.8606C5.65991 19.3172 6.263 19.6044 6.90906 19.6759C10.2641 20.0509 13.7361 20.0509 17.0921 19.6759C17.7381 19.6044 18.3412 19.3172 18.8039 18.8606C19.2666 18.4041 19.5609 17.8049 19.6411 17.1599Z" fill="#458FFF"/>
</g>
</svg>
