<svg width="32" height="29" viewBox="0 0 32 29" fill="none" xmlns="http://www.w3.org/2000/svg">
<g id="Group">
<path id="Vector" d="M31.9916 26.1641L31.6896 23.198L31.6164 22.4757H11.4915H10.1238L8.43531 20.275H6.42976C6.27592 19.7216 5.76375 19.3145 5.15964 19.3145C4.43171 19.3145 3.83887 19.9073 3.83887 20.6371C3.83887 21.365 4.43171 21.9579 5.15964 21.9579C5.76375 21.9579 6.27217 21.5545 6.42976 20.9992H8.07885L9.20826 22.4757L9.60224 22.9897L9.76359 23.1999H11.4164H14.3469L13.1856 24.7139H11.5365C11.4896 24.5488 11.4108 24.3949 11.3076 24.2636C11.0656 23.9522 10.6885 23.7552 10.2664 23.7552C9.66979 23.7552 9.16511 24.151 9.00002 24.6951C8.99627 24.7101 8.99251 24.727 8.98688 24.7439C8.95874 24.8489 8.94373 24.9615 8.94373 25.0778C8.94373 25.2148 8.96437 25.3442 9.00377 25.4662C9.00564 25.4737 9.00752 25.4812 9.01127 25.4868C9.18387 26.0178 9.68292 26.3986 10.2664 26.3986C10.5928 26.3986 10.8911 26.2804 11.1219 26.0834L11.1144 26.166C11.0618 26.6838 11.2307 27.2016 11.5815 27.5881C11.9305 27.9745 12.4295 28.1959 12.9492 28.1959H30.153C30.6727 28.1959 31.1718 27.9745 31.5207 27.5881C31.8715 27.1997 32.0423 26.6819 31.9916 26.1641ZM5.15964 21.2337C4.83132 21.2337 4.56117 20.9654 4.56117 20.6371C4.56117 20.3069 4.83132 20.0386 5.15964 20.0386C5.48983 20.0386 5.75812 20.305 5.75812 20.6371C5.75812 20.9654 5.48796 21.2337 5.15964 21.2337ZM10.7185 25.4624C10.6097 25.59 10.4484 25.6688 10.2683 25.6688C10.0882 25.6688 9.92681 25.59 9.81799 25.4624C9.72607 25.3611 9.67354 25.2204 9.67354 25.0741C9.67354 24.9521 9.71106 24.8358 9.77485 24.7401C9.88178 24.5788 10.0656 24.4756 10.2701 24.4756C10.4765 24.4756 10.6566 24.5788 10.7636 24.7401C10.8292 24.8358 10.8686 24.9521 10.8686 25.0741C10.8667 25.2204 10.8105 25.3611 10.7185 25.4624Z" fill="url(#paint0_linear_1286_8169)"/>
<path id="Vector_2" d="M17.4777 11.8888C17.9955 11.8888 18.4139 11.4705 18.4139 10.9527C18.4139 10.6825 18.2994 10.4405 18.1155 10.2698V4.74466C18.1155 2.84979 19.6577 1.30764 21.5526 1.30764C23.4474 1.30764 24.9896 2.84979 24.9896 4.74466V10.2679C24.8057 10.4386 24.6913 10.6806 24.6913 10.9508C24.6913 11.4686 25.1096 11.887 25.6275 11.887C26.1453 11.887 26.5636 11.4686 26.5636 10.9508C26.5636 10.6956 26.4623 10.4668 26.2972 10.2979V4.74466C26.2972 2.1275 24.1678 0 21.5526 0C18.9354 0 16.8079 2.12937 16.8079 4.74466V10.2979C16.6428 10.4668 16.5415 10.6975 16.5415 10.9508C16.5415 11.4686 16.9599 11.8888 17.4777 11.8888Z" fill="url(#paint1_linear_1286_8169)"/>
<path id="Vector_3" d="M11.9114 19.2827C11.8795 19.2827 11.8477 19.2846 11.8158 19.2865C11.131 19.3352 10.5869 19.9075 10.5869 20.6054C10.5869 21.2113 10.9959 21.7235 11.5512 21.8792C11.6657 21.9111 11.7857 21.9299 11.9096 21.9299C12.5118 21.9299 13.0202 21.5228 13.1797 20.9693H31.4604L31.3853 20.2433H13.1797C13.0221 19.688 12.5137 19.2827 11.9114 19.2827ZM11.9114 21.202C11.8101 21.202 11.7126 21.1776 11.6281 21.1325C11.4387 21.0312 11.3111 20.8342 11.3111 20.6054C11.3111 20.3352 11.4912 20.1082 11.7388 20.035C11.7932 20.02 11.8514 20.0106 11.9114 20.0106C12.2398 20.0106 12.5062 20.277 12.5062 20.6072C12.5062 20.9356 12.2398 21.202 11.9114 21.202Z" fill="url(#paint2_linear_1286_8169)"/>
<path id="Vector_4" d="M7.62636 17.4629C8.22859 17.4629 8.73701 17.0596 8.89648 16.5024H12.099H31.0101L30.9369 15.7801L30.2409 8.9398C30.1433 7.99612 29.3535 7.2832 28.406 7.2832H26.9258V10.0805C27.1003 10.3375 27.1922 10.6377 27.1922 10.951C27.1922 11.8121 26.4924 12.5119 25.6313 12.5119C24.772 12.5119 24.0704 11.8121 24.0704 10.951C24.0704 10.6245 24.1773 10.3018 24.3687 10.0373V7.2832H18.7404V10.0373C18.9317 10.3018 19.0387 10.6264 19.0387 10.951C19.0387 11.8121 18.337 12.5119 17.4778 12.5119C16.6166 12.5119 15.9168 11.8121 15.9168 10.951C15.9168 10.6377 16.0088 10.3375 16.1814 10.0805V7.2832H14.7011C13.7518 7.2832 12.9639 7.99424 12.8663 8.94167L12.1703 15.7801H8.89648C8.73701 15.2247 8.22859 14.8195 7.62636 14.8195C6.89656 14.8195 6.30371 15.4086 6.30371 16.1421C6.30559 16.8701 6.89843 17.4629 7.62636 17.4629ZM7.62636 15.5437C7.95468 15.5437 8.22484 15.8138 8.22484 16.1421C8.22484 16.4705 7.95468 16.7369 7.62636 16.7369C7.29617 16.7369 7.02788 16.4705 7.02788 16.1421C7.02788 15.8138 7.29804 15.5437 7.62636 15.5437Z" fill="url(#paint3_linear_1286_8169)"/>
<path id="Vector_5" d="M5.76525 18.0107L6.32433 18.7368H11.8738H31.2352L31.162 18.0107H11.9451H6.68266L4.59832 15.296H2.59277C2.43518 14.7426 1.923 14.3354 1.32265 14.3354C0.592847 14.3354 0 14.9283 0 15.6581C0 16.386 0.592847 16.9789 1.32265 16.9789C1.923 16.9789 2.4333 16.5755 2.59277 16.0221H4.23998L5.76525 18.0107ZM1.32265 16.2566C0.992456 16.2566 0.724174 15.9864 0.724174 15.6581C0.724174 15.3279 0.99058 15.0596 1.32265 15.0596C1.65284 15.0596 1.91925 15.3298 1.91925 15.6581C1.91925 15.9864 1.65284 16.2566 1.32265 16.2566Z" fill="url(#paint4_linear_1286_8169)"/>
</g>
<defs>
<linearGradient id="paint0_linear_1286_8169" x1="14.1773" y1="27.7522" x2="31.9043" y2="8.04676" gradientUnits="userSpaceOnUse">
<stop stop-color="#028CF3"/>
<stop offset="1" stop-color="#2FEAA8"/>
</linearGradient>
<linearGradient id="paint1_linear_1286_8169" x1="8.06866" y1="22.2573" x2="25.7956" y2="2.55191" gradientUnits="userSpaceOnUse">
<stop stop-color="#028CF3"/>
<stop offset="1" stop-color="#2FEAA8"/>
</linearGradient>
<linearGradient id="paint2_linear_1286_8169" x1="14.3727" y1="27.9284" x2="32.0996" y2="8.22304" gradientUnits="userSpaceOnUse">
<stop stop-color="#028CF3"/>
<stop offset="1" stop-color="#2FEAA8"/>
</linearGradient>
<linearGradient id="paint3_linear_1286_8169" x1="10.8438" y1="24.7538" x2="28.5707" y2="5.04842" gradientUnits="userSpaceOnUse">
<stop stop-color="#028CF3"/>
<stop offset="1" stop-color="#2FEAA8"/>
</linearGradient>
<linearGradient id="paint4_linear_1286_8169" x1="9.59909" y1="23.6341" x2="27.326" y2="3.9288" gradientUnits="userSpaceOnUse">
<stop stop-color="#028CF3"/>
<stop offset="1" stop-color="#2FEAA8"/>
</linearGradient>
</defs>
</svg>
