<svg width="32" height="32" viewBox="0 0 32 32" fill="none" xmlns="http://www.w3.org/2000/svg">
<path d="M29.3332 15.4251C29.3332 24.4746 22.0006 31.8101 12.9558 31.8101C12.5009 31.8101 12.0507 31.7916 11.6056 31.755C11.9903 31.1131 12.3312 30.4428 12.6262 29.7476C12.631 29.7354 12.6367 29.7234 12.6417 29.7112C13.4658 27.7555 13.9216 25.6057 13.9216 23.3499C13.9216 20.0722 12.96 17.0192 11.3027 14.4588H29.3042C29.3156 14.656 29.3245 14.8541 29.3286 15.0531C29.3317 15.1769 29.3332 15.3006 29.3332 15.4251Z" fill="url(#paint0_linear_1002_211)"/>
<path d="M28.9244 15.0531C28.724 23.2286 22.0379 29.7937 13.8181 29.7937C13.4164 29.7937 13.0198 29.7783 12.6262 29.7476C12.631 29.7354 12.6367 29.7234 12.6417 29.7112C13.4658 27.7555 13.9216 25.6057 13.9216 23.3499C13.9216 20.0722 12.96 17.0192 11.3027 14.4588H28.9002C28.9113 14.656 28.9202 14.8541 28.9244 15.0531Z" fill="#0080FF"/>
<path d="M16.0001 28.0139C23.3639 28.0139 29.3334 22.0412 29.3334 14.6736C29.3334 7.30596 23.3639 1.33331 16.0001 1.33331C8.63629 1.33331 2.66675 7.30596 2.66675 14.6736C2.66675 22.0412 8.63629 28.0139 16.0001 28.0139Z" fill="url(#paint1_linear_1002_211)"/>
<g clip-path="url(#clip0_1002_211)">
<path d="M24.205 19.318C24.1997 19.586 24.089 19.8412 23.8971 20.0283C23.7052 20.2154 23.4474 20.3194 23.1794 20.3179H17.2377C16.9673 20.3184 16.7078 20.2116 16.5159 20.0209L9.63966 13.354L9.63389 13.3482C9.44169 13.1558 9.33373 12.8949 9.33373 12.6228C9.33373 12.3508 9.44169 12.0899 9.63389 11.8974L13.7365 7.78505L13.7461 7.77607C13.9392 7.58993 14.1978 7.48737 14.466 7.49061C14.7341 7.49386 14.9902 7.60263 15.1788 7.79339L15.705 8.32443C15.8851 8.50482 15.9916 8.7458 16.0038 9.00043C16.0762 10.4647 17.0877 11.4543 18.6441 11.5825C18.9002 11.6045 19.139 11.7212 19.3138 11.9097C19.4886 12.0982 19.5869 12.3452 19.5897 12.6023V13.3912C19.5897 13.4592 19.5626 13.5245 19.5146 13.5726C19.4665 13.6207 19.4013 13.6477 19.3333 13.6477H17.5384C17.4681 13.6476 17.3985 13.6619 17.334 13.6898C17.2694 13.7176 17.2113 13.7585 17.1632 13.8098C17.1151 13.8611 17.0781 13.9218 17.0544 13.988C17.0307 14.0542 17.0209 14.1246 17.0256 14.1948C17.037 14.3267 17.0979 14.4493 17.196 14.5382C17.2941 14.6271 17.4221 14.6755 17.5544 14.6739H19.3493C19.4126 14.6735 19.4738 14.6965 19.5211 14.7386C19.5684 14.7806 19.5986 14.8387 19.6057 14.9016C19.6227 15.0578 19.658 15.2115 19.7108 15.3595C19.7241 15.3981 19.7279 15.4392 19.7221 15.4796C19.7163 15.52 19.7009 15.5584 19.6773 15.5916C19.6536 15.6248 19.6224 15.6519 19.5862 15.6707C19.5501 15.6894 19.5099 15.6993 19.4691 15.6994H18.0512C17.9809 15.6993 17.9113 15.7136 17.8468 15.7415C17.7822 15.7694 17.7241 15.8102 17.676 15.8615C17.6279 15.9128 17.5909 15.9735 17.5672 16.0397C17.5435 16.1059 17.5337 16.1763 17.5384 16.2465C17.5497 16.3784 17.6105 16.5012 17.7087 16.5901C17.8068 16.679 17.9349 16.7274 18.0672 16.7256H21.6409C21.9799 16.7256 22.3156 16.7928 22.6284 16.9234C22.9413 17.054 23.2252 17.2454 23.4636 17.4865C23.7021 17.7276 23.8904 18.0136 24.0176 18.328C24.1449 18.6423 24.2086 18.9788 24.205 19.318ZM12.4102 17.7524C12.4102 17.6163 12.3561 17.4858 12.26 17.3896C12.1638 17.2934 12.0334 17.2393 11.8974 17.2393H9.84607C9.71006 17.2393 9.57963 17.2934 9.48345 17.3896C9.38728 17.4858 9.33325 17.6163 9.33325 17.7524C9.33325 17.8885 9.38728 18.019 9.48345 18.1152C9.57963 18.2115 9.71006 18.2655 9.84607 18.2655H11.8974C12.0334 18.2655 12.1638 18.2115 12.26 18.1152C12.3561 18.019 12.4102 17.8885 12.4102 17.7524ZM13.9486 19.2917H10.8717C10.7357 19.2917 10.6053 19.3457 10.5091 19.442C10.4129 19.5382 10.3589 19.6687 10.3589 19.8048C10.3589 19.9409 10.4129 20.0714 10.5091 20.1676C10.6053 20.2638 10.7357 20.3179 10.8717 20.3179H13.9486C14.0846 20.3179 14.2151 20.2638 14.3113 20.1676C14.4074 20.0714 14.4615 19.9409 14.4615 19.8048C14.4615 19.6687 14.4074 19.5382 14.3113 19.442C14.2151 19.3457 14.0846 19.2917 13.9486 19.2917Z" fill="white"/>
</g>
<defs>
<linearGradient id="paint0_linear_1002_211" x1="11.3025" y1="23.1346" x2="29.3332" y2="23.1346" gradientUnits="userSpaceOnUse">
<stop offset="0.1776" stop-color="#0D8CFF"/>
<stop offset="0.424" stop-color="#179AFF"/>
<stop offset="0.8867" stop-color="#31BEFF"/>
<stop offset="1" stop-color="#38C8FF"/>
</linearGradient>
<linearGradient id="paint1_linear_1002_211" x1="2.66676" y1="14.6737" x2="29.3334" y2="14.6737" gradientUnits="userSpaceOnUse">
<stop offset="0.1776" stop-color="#0D8CFF"/>
<stop offset="0.424" stop-color="#179AFF"/>
<stop offset="0.8867" stop-color="#31BEFF"/>
<stop offset="1" stop-color="#38C8FF"/>
</linearGradient>
<clipPath id="clip0_1002_211">
<rect width="16.4103" height="16.4188" fill="white" transform="translate(7.79468 6.46399)"/>
</clipPath>
</defs>
</svg>
